<svg width="128" height="128" viewBox="0 0 128 128" fill="none" xmlns="http://www.w3.org/2000/svg">
    <g id="logos:zbrush">
        <g id="Frame 11">
            <path id="Vector"
                d="M98.7344 13H29.2656C19.7301 13 12 20.7717 12 30.3585V97.5872C12 107.174 19.7301 114.946 29.2656 114.946H98.7344C108.27 114.946 116 107.174 116 97.5872V30.3585C116 20.7717 108.27 13 98.7344 13Z"
                fill="white" />
            <g id="Frame 8">
                <path id="Vector_2" fill-rule="evenodd" clip-rule="evenodd"
                    d="M105.873 100.713C106.615 98.2579 104.017 93.556 100.355 88.1373C90.7615 74.4074 73.0713 67.1107 63.4448 68.479L63.5034 68.1033C66.7252 64.2749 70.0785 60.0289 73.4608 57.4358C79.906 60.9835 85.4341 59.5533 90.8354 53.8218C93.4338 51.249 94.4848 49.2544 94.018 47.8375C93.2294 45.4957 91.3318 44.3683 88.3239 44.3977C85.5166 44.5159 81.0899 47.2658 79.243 48.9074C72.6142 45.9584 67.883 44.2237 65.0213 43.7322C54.2174 41.8242 44.8732 45.2361 37.0181 53.9371C32.7839 58.7073 30.8569 61.4826 31.2657 62.2925C31.6109 62.7509 32.6673 62.644 33.7768 62.4949C36.4401 61.7389 42.6329 59.6479 42.6247 58.3894C42.6671 54.9175 42.8175 53.131 46.8297 50.3525C52.7632 46.5126 57.2335 46.7155 64.5545 51.9713C67.2123 53.7924 69.3578 55.1415 70.5548 55.8057C65.4966 59.9909 61.1929 64.4386 58.0137 69.2015C45.3193 72.4042 27.2227 82.1699 22.593 93.6302C21.9127 95.3025 21.7571 96.1359 22.447 96.55C29.6626 99.498 46.0781 89.9382 56.3489 76.9786C66.2086 75.8692 93.9332 78.955 92.0621 87.7323C91.256 89.6118 91.2742 89.9785 91.3899 90.4501C92.4146 93.2059 99.1225 98.2983 103.683 100.54C104.94 101.089 105.669 101.147 105.873 100.713ZM82.8636 50.0631C82.2541 49.6681 85.9484 47.9012 88.6456 47.4615C91.3494 47.0403 92.7301 48.1773 91.7403 49.1386C89.5928 51.1007 83.8919 50.7963 82.8636 50.0631ZM34.5652 91.491C31.2383 93.2924 28.1749 94.5934 27.0608 92.8208C26.681 90.0745 28.7834 87.241 33.3388 84.3211C38.5944 80.9868 44.2772 78.8252 50.3337 77.6721L51.0052 77.7586C46.5503 83.0598 40.8079 87.969 34.5652 91.491ZM41.7194 52.5209C40.9894 53.7061 40.5221 54.8917 40.3179 56.0769C40.1134 57.031 39.8503 57.6957 39.5002 58.072C38.7701 58.8232 38.1862 59.1413 37.748 59.0254C37.4561 58.9965 37.3977 58.8232 37.5729 58.5339C37.8356 58.1001 38.42 56.8575 39.2956 54.8046C40.201 52.8966 40.9894 51.8267 41.6902 51.567C42.1869 51.4223 42.1869 51.7403 41.7194 52.5209ZM58.7437 44.3683C61.5759 44.3106 64.7885 44.9754 68.4092 46.3633C70.4243 47.144 73.081 48.2995 76.4095 49.8904C79.7974 51.3648 82.2211 52.1737 83.7103 52.3182C84.031 52.5786 83.8849 52.6942 83.2722 52.6942C80.5278 52.5497 77.8985 51.9714 75.3585 50.9598L68.1467 47.6355C64.8752 46.2188 61.6928 45.2361 58.5977 44.6575C58.3639 44.5416 58.4223 44.4552 58.7437 44.3684V44.3683ZM83.0965 75.5907C79.1549 73.6537 74.6875 72.3241 69.6941 71.5435C63.9412 71.1965 61.0505 70.8785 60.9628 70.6181C60.9043 70.3872 61.2841 70.1848 62.131 70.0404C69.2355 69.3202 77.0571 71.5318 85.2577 76.082C87.5574 77.5593 85.681 76.9198 83.0965 75.5907ZM92.0324 81.2567C91.478 80.6494 91.3318 80.4474 91.5361 80.5919C92.5287 81.228 93.5513 82.2108 94.6308 83.5698C96.2375 85.5355 96.7338 87.1835 96.1792 88.5417L95.8577 88.8312C95.595 88.8022 95.3028 88.3109 95.0106 87.3281C94.4402 84.7026 94.4889 83.9342 92.0324 81.2567ZM95.6828 91.5485C95.078 90.2303 95.8124 89.1066 96.6458 90.4501L98.7194 93.5144C99.0116 93.8907 99.0401 94.0928 98.8356 94.064C98.0005 94.0697 96.4007 92.8161 95.6828 91.5485ZM66.3656 31.4458C65.2554 33.1516 64.8467 34.7996 65.1674 36.3892C65.4595 37.8927 66.3064 39.0777 67.7372 39.916C69.11 40.7548 71.2415 41.0436 74.1914 40.8124C77.9581 40.5521 79.8558 39.7714 79.8855 38.4993C80.0896 36.3894 79.2716 34.0764 77.4321 31.6193C75.4465 28.9884 73.315 27.7741 71.0074 28.0345C69.2264 28.2657 67.6791 29.3932 66.3656 31.4458ZM71.212 32.3132C70.5825 31.8048 70.8133 30.8734 71.504 30.4917L72.7307 30.5784C73.2272 30.8965 73.5773 31.2725 73.7532 31.764C74.2335 33.1641 72.1214 32.9205 71.2118 32.3132H71.212ZM76.7601 38.384C77.0818 38.4707 77.1982 38.6158 77.1696 38.7603C77.1115 39.0202 76.5557 39.1935 75.5344 39.2799L74.1034 39.1935C73.2569 39.0054 74.2547 38.245 75.6804 38.2687L76.7599 38.384H76.7601Z"
                    fill="black" />
            </g>
        </g>
    </g>
</svg>