<svg width="128" height="128" viewBox="0 0 128 128" fill="none" xmlns="http://www.w3.org/2000/svg">
<g id="logos:Pet&#39;s nest">
<rect width="128" height="128" rx="64" fill="white"/>
<g id="Mark">
<path d="M56.6829 100.438C57.2488 98.9882 57.5186 97.4404 57.4766 95.8853C57.5629 91.5755 58.7203 87.3541 60.8454 83.5979C62.9653 79.8481 65.9883 76.6814 69.6427 74.3824C70.9958 73.6601 72.1876 72.6721 73.146 71.4782C74.1043 70.2842 74.8094 68.9092 75.2184 67.4363C75.6274 65.9634 75.7319 64.4232 75.5256 62.909C75.3193 61.3947 74.8064 59.9378 74.0181 58.6265C72.9649 56.8749 71.4493 55.4389 69.6427 54.4834C68.607 53.7683 67.6121 52.9982 66.6637 52.173L64.2869 49.8568C59.9317 45.3003 57.4894 39.2605 57.4591 32.9718C57.5041 31.4164 57.2357 29.8678 56.6696 28.4173C56.1035 26.9668 55.2512 25.6438 54.1631 24.5264C53.0798 23.4102 51.7817 22.5227 50.3462 21.9169C48.9107 21.311 47.3672 20.9992 45.808 21C44.2496 21.0022 42.7075 21.3154 41.2729 21.9211C39.8383 22.5268 38.5403 23.4127 37.4558 24.5264C36.3696 25.6458 35.5186 26.9695 34.9526 28.4201C34.3867 29.8707 34.1171 31.4191 34.1597 32.9747C34.1851 34.994 34.744 36.971 35.7801 38.7073C36.8127 40.4406 38.2869 41.8718 40.0537 42.8562C47.2073 47.3611 52.1848 55.9745 52.1848 64.4459C52.1672 70.68 49.7715 76.6748 45.4821 81.2181L40.0711 86.001C38.3053 86.9825 36.8303 88.4127 35.7947 90.1499C34.7561 91.8841 34.2004 93.8645 34.1743 95.8853C34.1298 97.4407 34.3985 98.9892 34.9645 100.44C35.5306 101.89 36.3826 103.213 37.4703 104.331C38.5538 105.447 39.852 106.334 41.2874 106.94C42.7229 107.546 44.2662 107.858 45.8254 107.857C47.3843 107.855 48.9269 107.542 50.3621 106.937C51.7972 106.331 53.0956 105.445 54.1805 104.331C55.2662 103.212 56.1169 101.888 56.6829 100.438Z" fill="#797641"/>
<path d="M72.4849 39.4137C71.202 37.4971 70.5183 35.2417 70.5183 32.9371C70.5203 29.85 71.7491 26.8889 73.9366 24.7001C75.8386 22.7957 78.3472 21.6095 81.0321 21.3448C83.717 21.0801 86.4107 21.7536 88.6511 23.2496C90.5702 24.5319 92.0644 26.3514 92.945 28.4784C93.8257 30.6078 94.0556 32.9484 93.606 35.2072C93.1563 37.466 92.047 39.5426 90.417 41.1769C88.7919 42.8067 86.7158 43.9176 84.4535 44.3678C82.1912 44.818 79.8454 44.5871 77.7156 43.7045C75.5837 42.821 73.7633 41.3277 72.4849 39.4137Z" fill="#797641"/>
<path d="M75.6995 86.195C77.6167 84.9153 79.8713 84.232 82.1753 84.232V84.2262C83.7069 84.228 85.2231 84.5308 86.6369 85.117C88.0507 85.7033 89.3343 86.5616 90.4141 87.6426C92.3223 89.5531 93.5092 92.0607 93.7743 94.7416C94.0393 97.4225 93.3662 100.112 91.8686 102.356C90.5903 104.273 88.7688 105.768 86.6351 106.653C84.5053 107.535 82.1595 107.766 79.8972 107.316C77.6349 106.866 75.5587 105.755 73.9337 104.125C72.3031 102.491 71.1935 100.414 70.7438 98.1541C70.2941 95.8947 70.5243 93.5535 71.4056 91.4238C72.2864 89.2969 73.7806 87.4774 75.6995 86.195Z" fill="#797641"/>
<path d="M110.036 57.9374C111.316 59.8534 112 62.105 112 64.4087C111.998 67.4966 110.769 70.4584 108.582 72.6482C107.502 73.7288 106.218 74.5868 104.804 75.173C103.391 75.7593 101.875 76.0622 100.343 76.0645C98.0365 76.0646 95.7821 75.3812 93.8672 74.1016C91.9482 72.8192 90.4539 70.9997 89.5733 68.8728C88.692 66.743 88.4617 64.4018 88.9115 62.1424C89.3612 59.883 90.4708 57.8059 92.1014 56.1714C93.7267 54.541 95.8033 53.4297 98.0662 52.9795C100.329 52.5293 102.675 52.7606 104.806 53.6438C106.938 54.5281 108.758 56.0224 110.036 57.9374Z" fill="#797641"/>
<path d="M21.1791 54.7208C23.0962 53.4411 25.3479 52.7578 27.6548 52.7578C29.1861 52.7611 30.7016 53.0647 32.1148 53.6515C33.528 54.2382 34.8111 55.0964 35.8907 56.1771C37.7979 58.087 38.9843 60.5935 39.2493 63.2733C39.5144 65.953 38.8418 68.6416 37.3452 70.8849C36.0672 72.7999 34.2467 74.2942 32.1146 75.1786C29.984 76.0569 27.6393 76.2855 25.378 75.8355C23.1166 75.3855 21.0406 74.2772 19.4132 72.651C17.7832 71.0167 16.6739 68.9401 16.2242 66.6813C15.7745 64.4225 16.0044 62.0819 16.8851 59.9525C17.7654 57.8246 19.2597 56.004 21.1791 54.7208Z" fill="#797641"/>
</g>
</g>
</svg>
